<?xml version="1.0" encoding="UTF-8"?>
<svg id="Layer_1" data-name="Layer 1" xmlns="http://www.w3.org/2000/svg" version="1.1" viewBox="0 0 841.89 252">
  <defs>
    <style>
      .cls-1 {
        fill: #f28130;
      }

      .cls-1, .cls-2, .cls-3 {
        stroke-width: 0px;
      }

      .cls-2 {
        fill: #ed2330;
      }

      .cls-3 {
        fill: #fff;
      }
    </style>
  </defs>
  <path class="cls-3" d="M427.29,133.39c-7.69-.69-14.64-.43-22.3-1.37-2.31-.28-4.6-1.5-6.67-2.68-6.67-3.78-8.54-8.63-6.31-15.92,4.95-16.15,10.01-32.27,14.85-48.45,1.6-5.36,4.99-9.09,9.48-12.05,6.25-4.11,13.15-6.99,20.55-7.25,12.65-.44,25.35-.49,37.97.22,4.31.24,8.82,2.72,12.6,5.16,4.4,2.84,5.91,7.46,4.25,12.75-5.46,17.36-10.77,34.77-16.5,52.04-.95,2.86-3.31,5.57-5.66,7.6-7.26,6.25-16.03,9.15-25.46,9.86-5.3.4-10.66.07-16,.07-.4,0-.43.02-.8,0ZM431.55,118.12c3.45-.17,5.78-.12,8.06-.43,4.95-.67,8.38-2.91,9.94-8.19,4.03-13.58,8.48-27.03,12.77-40.53,1.5-4.72.04-7.64-4.84-8.08-4.77-.43-9.66-.42-14.4.15-3.57.43-7,2.05-8.3,6.07-4.68,14.53-9.37,29.07-14.01,43.61-1.13,3.54-.32,5.45,3.27,6.43,2.76.75,5.73.76,7.51.97Z"/>
  <path class="cls-3" d="M558.06,133.39c-7.69-.69-14.64-.43-22.3-1.37-2.31-.28-4.6-1.5-6.67-2.68-6.67-3.78-8.54-8.63-6.31-15.92,4.95-16.15,10.01-32.27,14.85-48.45,1.6-5.36,4.99-9.09,9.48-12.05,6.25-4.11,13.15-6.99,20.55-7.25,12.65-.44,25.35-.49,37.97.22,4.31.24,8.82,2.72,12.6,5.16,4.4,2.84,5.91,7.46,4.25,12.75-5.46,17.36-10.77,34.77-16.5,52.04-.95,2.86-3.31,5.57-5.66,7.6-7.26,6.25-16.03,9.15-25.46,9.86-5.3.4-10.66.07-16,.07-.4,0-.43.02-.8,0ZM562.32,118.12c3.45-.17,5.78-.12,8.06-.43,4.95-.67,8.38-2.91,9.94-8.19,4.03-13.58,8.48-27.03,12.77-40.53,1.5-4.72.04-7.64-4.84-8.08-4.77-.43-9.66-.42-14.4.15-3.57.43-7,2.05-8.3,6.07-4.68,14.53-9.37,29.07-14.01,43.61-1.13,3.54-.32,5.45,3.27,6.43,2.76.75,5.73.76,7.51.97Z"/>
  <path class="cls-3" d="M404.05,233.5c-7.69-.69-14.64-.43-22.3-1.37-2.31-.28-4.6-1.5-6.67-2.68-6.67-3.78-8.54-8.63-6.31-15.92,4.95-16.15,10.01-32.27,14.85-48.45,1.6-5.36,4.99-9.09,9.48-12.05,6.25-4.11,13.15-6.99,20.55-7.25,12.65-.44,25.35-.49,37.97.22,4.31.24,8.82,2.72,12.6,5.16,4.4,2.84,5.91,7.46,4.25,12.75-5.46,17.36-10.77,34.77-16.5,52.04-.95,2.86-3.31,5.57-5.66,7.6-7.26,6.25-16.03,9.15-25.46,9.86-5.3.4-10.66.07-16,.07-.4,0-.43.02-.8,0ZM408.31,218.23c3.45-.17,5.78-.12,8.06-.43,4.95-.67,8.38-2.91,9.94-8.19,4.03-13.58,8.48-27.03,12.77-40.53,1.5-4.72.04-7.64-4.84-8.08-4.77-.43-9.66-.42-14.4.15-3.57.43-7,2.05-8.3,6.07-4.68,14.53-9.37,29.07-14.01,43.61-1.13,3.54-.32,5.45,3.27,6.43,2.76.75,5.73.76,7.51.97Z"/>
  <path class="cls-3" d="M619.34,190.21c-8.46,0-16.91.02-25.37-.02-1.55,0-2.62.17-3.15,1.96-1.72,5.88-3.66,11.71-5.43,17.58-.97,3.21-.22,5.4,2.99,6.12,7.53,1.68,15.16,2.28,22.21-1.97,1.14-.69,2.57-1.92,2.71-3.04.35-2.9,2.34-3.53,4.48-4.06,5.65-1.4,11.32-2.7,16.99-4.01.68-.16,1.4-.12,2.11-.13,5.97-.03,7.84,2.82,4.78,8.02-2.07,3.51-4.55,6.97-7.52,9.73-8.54,7.94-18.91,11.67-30.54,11.79-7.65.07-15.3.07-22.95-.01-6.1-.06-12.05-.98-17.47-4.05-6.8-3.85-8.83-9.08-6.53-16.48,4.7-15.07,9.56-30.1,13.96-45.26,1.98-6.82,6.19-11.35,12.11-14.68,5.87-3.3,12.2-5.7,18.86-5.88,12.55-.32,25.14-.29,37.67.44,4.13.24,8.42,2.63,12.07,4.93,4.58,2.89,5.56,7.32,3.97,12.47-2.47,7.97-4.99,15.93-7.34,23.93-.58,1.98-1.43,2.69-3.55,2.66-8.35-.13-16.71-.05-25.07-.05ZM596.83,174.96c7.38,0,14.5,0,21.63,0q6.09,0,7.98-5.75c1.5-4.56.14-7.21-4.6-8.05-2.84-.5-5.8-.41-8.7-.42-10.4-.03-14.24,3.25-16.3,14.23Z"/>
  <path class="cls-3" d="M456.88,232.02c1.72-5.56,3.26-10.64,4.86-15.7,7.06-22.35,14.15-44.68,21.17-67.04.55-1.76,1.28-2.67,3.28-2.76,5.82-.27,11.63-.92,17.45-1.09,3.03-.09,6.05.61,7.8,3.93,9.25-4.3,19-4.35,28.79-3.98,5.91.22,11.58,1.51,16.58,4.88,5.38,3.62,7.13,8.26,5.25,14.34-6.68,21.62-13.46,43.21-20.1,64.83-.65,2.11-1.66,3.38-3.82,3.55-4.27.32-8.65,1.3-12.79.68-6.89-1.04-10.17-6.31-8.42-13.08,2.06-7.97,4.7-15.8,7.15-23.66,2.91-9.31,5.89-18.61,8.84-27.91,1.36-4.28.07-7.3-4.28-7.72-5.24-.5-10.64-.34-15.86.32-4.09.52-6.65,3.25-7.95,7.61-5.98,20.04-12.34,39.97-18.41,59.99-.74,2.43-1.81,3.09-4.21,3.04-7.25-.15-14.5-.05-21.75-.06-.99,0-1.97-.09-3.56-.16Z"/>
  <path class="cls-3" d="M722,46.51c-1.93,6.18-3.66,11.73-5.39,17.27-6.82,21.8-13.67,43.59-20.43,65.41-.63,2.03-1.48,2.94-3.72,2.97-6.43.07-12.87.54-19.3.5-1.7-.01-3.34-1.46-5.09-1.95-1.01-.28-2.26-.22-3.28.1-11.53,3.54-23.18,3.72-34.9,1.27-2.32-.49-4.61-1.52-6.69-2.68-6.77-3.79-8.65-8.83-6.32-16.2,6.78-21.38,13.58-42.76,20.29-64.17.59-1.87,1.48-3.02,3.37-3.33,2.67-.44,5.35-1.15,8.02-1.18,9.98-.09,15.19,6.46,12.5,16.1-2.84,10.17-6.2,20.2-9.33,30.3-2.03,6.53-4.09,13.05-6.09,19.59-1.21,3.97-.21,6.49,3.82,6.82,5.85.48,11.83.26,17.67-.37,3.72-.4,5.9-3.26,7.05-7.02,6.2-20.2,12.59-40.34,18.81-60.53.67-2.19,1.61-3.01,3.97-2.96,8.13.15,16.27.06,25.02.06Z"/>
  <path class="cls-3" d="M269.52,232.19c1.69-5.36,3.1-10.06,4.69-14.69.29-.84,1.27-1.51,2.04-2.12,21.34-17.02,42.69-34.02,64.04-51.02.62-.49,1.2-1.02,2.44-2.07-1.72-.08-2.73-.17-3.74-.17-10.68-.01-21.36.09-32.03-.07-2.86-.04-5.89-.43-8.53-1.45-5.09-1.97-6.15-9.52-2.08-13.19.45-.41,1.26-.59,1.91-.59,26.9-.02,53.79,0,80.69.02.29,0,.57.15,1.37.38-2.75,6.48-2.48,13.74-9.21,18.84-20.78,15.75-41.07,32.17-61.54,48.33-.74.58-1.42,1.23-2.81,2.44h51.83c-1.62,5.14-2.98,9.82-4.66,14.38-.23.63-2.05.96-3.14.96-15.81.06-31.63.04-47.45.04-9.97,0-19.95,0-29.92,0-1.08,0-2.17,0-3.92,0Z"/>
  <path class="cls-3" d="M704.7,131.94c1.9-6.13,3.59-11.67,5.34-17.2,6.92-21.88,13.88-43.74,20.75-65.63.6-1.93,1.4-2.79,3.52-2.82,5.63-.07,11.26-.63,16.88-.47,2.35.07,4.63,1.59,7,2.24,1.1.3,2.45.4,3.51.04,11.89-3.96,23.87-4.24,35.94-1.04,1.73.46,3.4,1.26,5.03,2.04,3.56,1.7,3.81,3.39.71,5.97-4.65,3.87-10.09,6.2-15.93,7.6-3.1.74-6.17,1.12-8.81-1.4-.44-.42-1.32-.5-2-.51-4.72-.02-9.48-.32-14.16.14-4.92.49-8.3,2.99-9.86,8.28-5.93,19.96-12.26,39.81-18.31,59.74-.72,2.39-1.76,3.13-4.2,3.08-8.25-.15-16.49-.06-25.4-.06Z"/>
  <path class="cls-3" d="M537.83,35.15c-1.05,3.66-2.64,9.56-4.45,15.4-7.9,25.37-16.12,50.63-23.62,76.12-1.82,6.18-5.77,7.74-10.82,8.48-10.72,1.58-17.38-5.4-14.69-15.96,2.75-10.81,6.34-21.41,9.65-32.07,6.36-20.47,12.86-40.9,19.11-61.4.98-3.2,2.49-5.17,5.78-5.56,2.87-.34,5.83-1.06,8.63-.71,6.76.85,10.46,5.86,10.41,15.7Z"/>
  <path class="cls-3" d="M341.86,65.36c-2.44,7.58-4.8,14.92-7.16,22.25-2.31,7.18-4.62,14.36-6.91,21.55-1.11,3.49-.36,5.85,3.08,6.54,7.23,1.45,14.55,2.02,21.48-1.67,3.3-1.76,3.97-4.91,4.48-8.1.33-2.09,1.19-2.8,3.35-2.77,8.24.13,16.48.05,24.71.05-1.32,12.5-7.71,20.96-19.3,24.78-6.14,2.02-12.68,3.39-19.12,3.76-9.52.55-19.12.13-28.68-.22-5.19-.19-10.08-1.89-14.37-4.98-4.92-3.55-6.61-8.24-4.9-14,2.35-7.9,4.82-15.77,7.32-23.63.31-.99.92-2.15,1.75-2.67,10.98-6.92,22.02-13.74,33.05-20.57.23-.14.54-.15,1.2-.32Z"/>
  <path class="cls-3" d="M398.52,62.14c-1.44,5.11-4.46,8.79-10.07,9.57-6.79.94-12.89-1.41-18.89-4-.1-4.32-1.73-6.24-5.95-6.91-1.54-.24-3.11-.27-4.68-.32h-.01c-.07,0-.15,0-.22,0-1.78-.04-6.01.14-8.64.25-.01,0-.02,0-.03,0-.08,0-.16,0-.24.01-1.12.08-2.82.36-2.82.36.28-.25,1.67-1.17,2.61-1.78.46-.3.81-.53.87-.56h0s-.1.01-.18.02c0,0-.01,0-.02,0-1.61.31-9.62,2.18-10.15,2.3-.01,0-.02,0-.02,0-.22.05-.44.11-.66.18-.02,0-.04.01-.06.02-.5.11-.99.24-1.47.39-.16.05-.33.1-.5.15-11.54,3.2-24.14,7.5-25.19,7.88-.02,0-.03,0-.04.01-.02,0-.03,0-.03,0,.02-.1.04-.19.06-.29,1.08-5.46,2.73-10.23,6.92-13.85,6.46-5.58,14.11-9.15,22.39-9.65,13.12-.79,26.35-.68,39.48-.05,4.42.22,9,2.72,12.98,5.06,3.96,2.32,5.93,6.36,4.56,11.18Z"/>
  <path class="cls-1" d="M267.19,162.27c3.13,8.23,5.03,16.95,4.33,26.08-.97,12.69-9,20.25-21.71,20.77-10.1.41-19.61-2.11-28.84-5.82-21.51-8.65-40.26-21.71-57.73-36.7-20.38-17.49-38.4-37.16-53.22-59.62-9.7-14.69-18.19-30.04-21.6-47.52-1.12-5.73-1.25-11.91-.45-17.69,1.38-10.07,8.64-16.11,18.81-17.15,10.22-1.04,19.91,1.27,29.31,4.87,19.49,7.46,36.63,18.87,52.65,32.14-4.67-2.13-9.23-4.62-14.06-6.28-4.63-1.59-9.5-2.92-14.35-3.3-11.54-.91-19.02,6.26-19.38,17.84-.32,10.26,2.72,19.76,6.86,28.91,11.6,25.62,29.05,46.82,50.11,65.17,9.95,8.67,20.61,16.41,32.96,21.26,5.57,2.19,11.58,3.92,17.5,4.36,11.16.83,18.45-6.5,18.8-17.74.1-3.34.02-6.68.02-9.59Z"/>
  <path class="cls-2" d="M208.41,167.78c-6.93-6.02-13.81-11.99-21.15-18.37,47.91-41.18,99.93-73.03,160.57-89.5-6.29,3.07-12.7,5.91-18.84,9.25-21.9,11.91-41.73,26.84-60.34,43.27-19.59,17.3-38.51,35.35-57.73,53.07-.65.6-1.31,1.19-2.51,2.28Z"/>
  <path class="cls-2" d="M75.59,222.21c-5.68-8.49-11.53-17.22-17.63-26.33,23.1-19.5,46.04-38.86,68.21-57.57,6.33,5.83,12.09,11.13,16.75,15.42-22.49,22.88-44.79,45.57-67.32,68.48Z"/>
  <path class="cls-2" d="M151.89,162.91c11.63,8.85,23.04,17.53,34.65,26.37-.09.14-.33.76-.76,1.2-8.43,8.72-16.85,17.45-25.33,26.11-3.75,3.83-8.41,6.05-13.69,6.63-12.97,1.43-18.51-8.21-17.34-19.06.55-5.1,2.68-10.19,4.91-14.9,4.57-9.68,11.04-18.17,17.56-26.35Z"/>
  <path class="cls-2" d="M274.21,57.86c-1.54-.02-3.1.43-4.63.78-18.4,4.11-35.76,11.06-52.55,19.49-18.39,9.24-35.78,20.13-52.58,31.98-.76.53-1.61,2.18-1.32,2.76,2.83,5.68,5.9,11.24,8.96,16.93,11.99-9.61,23.47-18.81,34.95-28.01.02.02.03.04.05.05,4.21-3.29,6.55-5.04,6.55-5.04-.35.42-14.47,14.69-14.47,14.69h0c-7.7,7.8-15.43,15.64-23.28,23.61,3.69,4.52,7.13,8.73,10.88,13.32,1.26-1.36,2.01-2.18,2.77-2.99,10.73-11.31,20.91-23.21,32.31-33.79,16.69-15.48,34.26-30.01,51.44-44.97,1.34-1.17,2.71-2.42,3.68-3.88.74-1.11.88-2.63,1.29-3.97-1.34-.34-2.69-.94-4.03-.95Z"/>
  <path class="cls-2" d="M339.35,61.3c-.65.18-1.31.35-1.96.54.16-.05.33-.1.5-.15.48-.15.97-.27,1.47-.39Z"/>
  <path class="cls-2" d="M350.44,58.76h0c-.05.01-.11.02-.17.03.07-.01.13-.02.18-.03Z"/>
</svg>